<svg width="50" height="40" viewBox="0 0 50 40" fill="none" xmlns="http://www.w3.org/2000/svg">
<path d="M5.62822 0H0.528819C0.0868269 0 -0.157258 0.647061 0.113214 1.08403L23.3409 38.9663C23.5374 39.2881 23.789 39.5486 24.0765 39.7277C24.3641 39.9069 24.6799 40 25 40C25.3201 40 25.6359 39.9069 25.9235 39.7277C26.211 39.5486 26.4626 39.2881 26.6591 38.9663L49.8868 1.08403C50.1573 0.638657 49.9132 0 49.4712 0H44.3718C44.0485 0 43.7385 0.193273 43.5406 0.5126L25.0033 30.7646L6.45943 0.5126C6.26152 0.193273 5.95147 0 5.62822 0Z" fill="white"/>
</svg>
