<svg width="54" height="42" viewBox="0 0 54 42" fill="none" xmlns="http://www.w3.org/2000/svg">
<path d="M47.216 28.73V28.842C47.216 30.2793 46.9873 31.334 46.53 32.006C46.082 32.6687 45.41 33 44.514 33C43.8513 33 43.31 32.832 42.89 32.496C42.7967 32.4213 42.7173 32.328 42.652 32.216C41.9053 32.7387 41.2147 33 40.58 33C39.7027 33 39.0447 32.7293 38.606 32.188C38.1767 31.6373 37.962 30.7553 37.962 29.542C37.962 28.3193 38.1627 27.4233 38.564 26.854C38.9747 26.2847 39.6653 26 40.636 26C40.9627 26 41.3173 26.084 41.7 26.252L41.91 26.35V26.168H43.786V28.674C43.786 29.962 43.8093 30.6993 43.856 30.886C43.912 31.0727 43.968 31.2033 44.024 31.278C44.0893 31.3527 44.1547 31.3993 44.22 31.418C44.2853 31.4273 44.374 31.432 44.486 31.432C44.7847 31.432 44.9993 31.25 45.13 30.886C45.27 30.522 45.34 29.8407 45.34 28.842V28.716C45.34 27.2227 44.9947 26.14 44.304 25.468C43.6227 24.7867 42.5307 24.446 41.028 24.446C39.5347 24.446 38.3913 24.8753 37.598 25.734C36.8047 26.5927 36.408 27.8433 36.408 29.486C36.408 31.1193 36.7627 32.3233 37.472 33.098C38.1813 33.882 39.3713 34.274 41.042 34.274L43.044 34.148L43.114 35.786C42.274 35.8793 41.5833 35.926 41.042 35.926C39.9687 35.926 39.0447 35.8187 38.27 35.604C37.4953 35.3893 36.8187 35.0347 36.24 34.54C35.1013 33.5413 34.532 31.81 34.532 29.346C34.532 27.19 35.1153 25.5613 36.282 24.46C37.4487 23.3493 39.0447 22.794 41.07 22.794C43.0953 22.794 44.626 23.3027 45.662 24.32C46.698 25.328 47.216 26.798 47.216 28.73ZM40.734 31.348C41.0887 31.348 41.5087 31.2313 41.994 30.998C41.938 30.662 41.91 30.1673 41.91 29.514V27.792C41.518 27.6987 41.2333 27.652 41.056 27.652C40.5707 27.652 40.2487 27.7873 40.09 28.058C39.9407 28.3287 39.866 28.8047 39.866 29.486C39.866 30.7273 40.1553 31.348 40.734 31.348Z" fill="#535353"/>
<rect x="1.5" y="1.5" width="51" height="39" rx="2.5" stroke="black" stroke-width="3"/>
<path d="M49.1923 3L26.9999 22.9816L4.80758 3L49.1923 3Z" stroke="black" stroke-width="3"/>
</svg>
