<svg width="67" height="109" viewBox="0 0 67 109" fill="none" xmlns="http://www.w3.org/2000/svg">
<path d="M3.22277 98.8C2.9561 98.8 2.58277 98.72 2.10277 98.56C1.56943 98.4533 1.24943 98.24 1.14277 97.92V98.08C1.14277 98.08 1.1161 97.84 1.06277 97.36C1.00943 96.9333 0.982766 96.56 0.982766 96.24C0.982766 95.6 1.08943 94.8533 1.30277 94C1.5161 93.1467 1.9161 92.2133 2.50277 91.2C3.1961 87.6267 3.94277 84.88 4.74277 82.96C5.5961 81.0933 6.36943 79.52 7.06277 78.24C7.96943 76.6933 8.90277 75.1733 9.86277 73.68C10.8761 72.1333 11.8894 70.64 12.9028 69.2C13.6494 68.1867 14.3694 67.12 15.0628 66C15.8094 64.8267 16.2894 64.0533 16.5028 63.68C16.8761 63.0933 17.3294 62.4267 17.8628 61.68C18.3961 60.88 18.9028 60.16 19.3828 59.52C19.9161 58.8267 20.2894 58.4 20.5028 58.24C20.5028 58.24 20.5561 58.16 20.6628 58C20.7694 57.84 20.8228 57.7333 20.8228 57.68C20.8228 57.0933 20.7694 56.5867 20.6628 56.16C20.6094 55.68 20.5828 55.3333 20.5828 55.12C20.3694 52.9333 20.1294 51.1733 19.8628 49.84C19.5961 48.5067 19.3028 47.36 18.9828 46.4C18.6628 45.44 18.3694 44.4267 18.1028 43.36C17.8361 42.2933 17.5961 40.9333 17.3828 39.28C17.3828 38.64 17.2494 37.8933 16.9828 37.04C16.7161 36.1867 16.4228 35.4133 16.1028 34.72C15.8361 34.0267 15.6228 33.6267 15.4628 33.52L15.3828 33.36C15.3828 33.2533 15.1961 32.9867 14.8228 32.56C14.5028 32.08 14.0228 31.9733 13.3828 32.24C13.2228 32.2933 13.0094 32.32 12.7428 32.32C12.1561 32.32 11.8628 32.0533 11.8628 31.52C11.8628 31.0933 11.9961 30.6133 12.2628 30.08C12.5828 29.4933 12.8228 29.0933 12.9828 28.88C13.2494 28.4533 13.6228 28.0267 14.1028 27.6C14.6361 27.12 15.0894 26.6933 15.4628 26.32C15.8894 25.8933 16.2628 25.6267 16.5828 25.52C16.9028 25.36 17.1961 25.28 17.4628 25.28C17.7294 25.28 17.9961 25.3067 18.2628 25.36C18.5828 25.4133 18.8494 25.44 19.0628 25.44H19.1428C20.1028 25.44 20.7428 25.8933 21.0628 26.8C21.4361 27.7067 21.7561 29.04 22.0228 30.8C22.2361 32.0267 22.4761 33.2267 22.7428 34.4C23.0628 35.52 23.2228 36.9333 23.2228 38.64C23.2228 39.44 23.3561 40.48 23.6228 41.76C23.8894 42.9867 24.1028 44.4533 24.2628 46.16C24.2628 46.5333 24.3428 47.3067 24.5028 48.48C24.6628 49.6533 24.8494 50.5333 25.0628 51.12V53.28C25.4894 53.12 25.8094 53.04 26.0228 53.04C27.1428 51.8133 28.2361 50.6667 29.3028 49.6C30.4228 48.48 30.9561 47.8933 30.9028 47.84L30.9828 47.68C31.8894 46.6667 33.1428 45.3867 34.7428 43.84C36.3428 42.24 38.1028 40.64 40.0228 39.04C41.9961 37.3867 43.9161 36 45.7828 34.88H45.8628C45.9161 34.88 46.2361 34.6133 46.8228 34.08C47.4094 33.4933 47.9961 32.9067 48.5828 32.32C49.2228 31.68 49.5961 31.3333 49.7028 31.28L49.8628 31.2C49.9694 31.2 50.2361 30.9867 50.6628 30.56C51.0894 30.08 51.5694 29.5733 52.1028 29.04C52.6894 28.4533 53.1428 28.0533 53.4628 27.84V27.76C54.1561 27.3333 54.6094 27.0933 54.8228 27.04C55.0361 26.9333 55.3028 26.7467 55.6228 26.48C55.9961 26.2133 56.6361 25.6267 57.5428 24.72L57.6228 24.64C57.7294 24.6933 57.9161 24.5867 58.1828 24.32C58.5028 24 58.6361 23.8133 58.5828 23.76L58.6628 23.6C58.9294 23.44 59.1161 23.3867 59.2228 23.44C59.3828 23.44 59.4894 23.4133 59.5428 23.36C60.1294 22.6133 60.7428 22.1067 61.3828 21.84C62.0761 21.52 62.7428 21.36 63.3828 21.36C64.0761 21.36 64.7161 21.4933 65.3028 21.76C65.8894 22.0267 66.3694 22.2933 66.7428 22.56C66.8494 22.6133 66.9028 22.8 66.9028 23.12C66.9561 23.3867 66.7161 23.8133 66.1828 24.4C65.7028 24.9333 64.7161 25.7067 63.2228 26.72C62.6361 27.0933 62.1028 27.52 61.6228 28C61.1961 28.4267 60.5294 28.96 59.6228 29.6C58.7694 30.24 57.4094 31.12 55.5428 32.24H55.4628C55.0361 32.4533 54.5294 32.96 53.9428 33.76C53.4094 34.56 52.8494 35.1733 52.2628 35.6C51.6761 35.92 50.9028 36.3733 49.9428 36.96C49.0361 37.4933 48.2894 37.9467 47.7028 38.32L43.6228 41.28C42.0228 42.4533 40.3694 43.8133 38.6628 45.36C36.9561 46.8533 35.3294 48.3733 33.7828 49.92C32.2361 51.4667 30.8494 52.88 29.6228 54.16C28.4494 55.3867 27.5694 56.2933 26.9828 56.88C26.7694 57.0933 26.5561 57.28 26.3428 57.44C26.1828 57.5467 25.9428 57.7333 25.6228 58C25.6228 58.2133 25.6494 58.4267 25.7028 58.64C25.7561 58.8533 25.7828 58.96 25.7828 58.96V58.88C26.1028 59.4133 26.3161 59.84 26.4228 60.16C26.5294 60.48 26.5828 60.7733 26.5828 61.04C26.5828 61.4133 26.5028 61.92 26.3428 62.56V62.48C26.2894 62.8 26.0494 62.96 25.6228 62.96C25.2494 62.96 24.7694 62.8267 24.1828 62.56C23.5961 62.24 23.1161 62 22.7428 61.84L22.6628 61.76H22.5828C21.9428 62.6133 21.2761 63.52 20.5828 64.48C19.8894 65.3867 19.2494 66.1333 18.6628 66.72L18.5828 66.8C18.5828 66.7467 18.3161 67.0933 17.7828 67.84C17.2494 68.5867 16.6361 69.4933 15.9428 70.56C15.2494 71.5733 14.6094 72.5333 14.0228 73.44H13.9428C13.7294 73.7067 13.1694 74.4267 12.2628 75.6C11.3561 76.7733 10.1294 78.9333 8.58277 82.08C7.40943 84.5333 6.74277 86.5333 6.58277 88.08C6.42277 89.6267 6.28943 90.5333 6.18277 90.8C6.34277 90.64 6.74277 90.32 7.38277 89.84C8.0761 89.4133 8.84943 88.9333 9.70277 88.4C10.5561 87.8667 11.3561 87.44 12.1028 87.12C12.8494 86.8 13.3828 86.6933 13.7028 86.8C14.1828 87.0133 14.4228 87.3067 14.4228 87.68C14.4228 88.0533 14.1294 88.4 13.5428 88.72C13.0094 89.0933 12.5828 89.3333 12.2628 89.44C12.2628 89.44 11.9961 89.6267 11.4628 90C10.9294 90.4267 10.3961 90.8267 9.86277 91.2C9.38277 91.6267 9.14277 91.84 9.14277 91.84C9.14277 91.84 9.00943 92.08 8.74277 92.56C8.4761 93.04 8.1561 93.3867 7.78277 93.6C7.56943 93.8133 7.22277 94.24 6.74277 94.88C6.3161 95.5733 5.80943 96.2933 5.22277 97.04C4.6361 97.7867 3.9961 98.3733 3.30277 98.8H3.22277Z" fill="#549CBB"/>
<path d="M2 98.324C3.19499 97.7965 4.52931 97.3031 5.87494 97.0062C8.63259 96.3976 11.1568 94.8941 13.5705 93.7987C16.1718 92.6181 19.7682 92.1455 22.7509 91.6604C27.5787 90.8751 32.5161 91.1312 37.4358 91.1631C41.6597 91.1904 45.8842 91.8111 50.0928 92.0333C50.7396 92.0675 51.3845 92.0349 52.0302 92.0582C52.1945 92.0641 53.1577 92.3453 53.171 92.3939C53.1916 92.4693 51.9569 92.9642 51.831 93.1274C51.6116 93.412 50.9568 93.636 50.5273 93.6246C49.6532 93.6016 50.2012 92.9967 49.7487 92.8414" stroke="#549CBB" stroke-width="3" stroke-linecap="round"/>
</svg>
